<svg width="99" height="74" viewBox="0 0 99 74" fill="none" xmlns="http://www.w3.org/2000/svg">
<path d="M20.2317 20.2885C20.3739 20.3841 20.4596 20.5126 20.4888 20.6743C20.5163 20.8283 20.4822 20.9764 20.3867 21.1187C18.5525 23.7375 16.835 26.4458 15.2344 29.2434C13.6319 32.0334 12.2795 34.9342 11.177 37.9458C14.0626 38.1874 16.5578 39.1883 18.6626 40.9484C20.7674 42.7086 22.2872 44.9401 23.2221 47.643C23.4308 48.2363 23.6109 48.8442 23.7622 49.4668C23.8048 49.7215 23.7482 49.9109 23.5924 50.035C23.4383 50.1667 23.2574 50.2164 23.0495 50.184C22.8492 50.15 22.7088 50.0099 22.6281 49.764C22.5038 48.9107 22.3157 48.0762 22.0638 47.2603C21.2739 44.8046 19.9124 42.7731 17.9791 41.1659C16.0475 39.5663 13.7824 38.6768 11.1838 38.4974C11.2185 40.2852 11.277 42.0715 11.3593 43.8563C11.3616 43.936 11.3337 44.0065 11.2757 44.068C11.2253 44.1277 11.1603 44.1587 11.0807 44.161C10.9934 44.165 10.9199 44.1419 10.8602 44.0915C10.8081 44.0393 10.7763 43.9705 10.7646 43.885C10.6408 42.0937 10.5437 40.2962 10.4732 38.4926C8.82185 38.5281 7.28305 38.9304 5.85677 39.6997C5.70566 39.7746 5.55282 39.7897 5.39825 39.7451C5.25305 39.7064 5.1392 39.6123 5.05672 39.463C4.96897 39.2908 4.95793 39.121 5.02361 38.9535C5.09689 38.7843 5.22695 38.6702 5.41378 38.6112C7.06243 38.1114 8.74021 37.8774 10.4471 37.9094C10.3277 34.5698 10.357 31.2321 10.535 27.8961C10.7112 24.5526 11.2107 21.2549 12.0334 18.0031C12.1214 17.7584 12.2661 17.6209 12.4675 17.5905C12.6766 17.5584 12.8566 17.6092 13.0076 17.7428C13.1645 17.867 13.2206 18.0585 13.176 18.3173C12.3576 21.2394 11.8167 24.218 11.5533 27.2528C11.2882 30.2801 11.1604 33.3118 11.17 36.348C12.2155 33.5419 13.4405 30.8188 14.8449 28.1786C16.257 25.5367 17.7814 22.9651 19.4182 20.4638C19.5137 20.3215 19.6385 20.2367 19.7925 20.2092C19.9448 20.1742 20.0912 20.2006 20.2317 20.2885ZM28.9778 29.6028C28.996 29.5425 29.0326 29.5101 29.0877 29.5054C29.1427 29.5008 29.1907 29.5178 29.2317 29.5564C29.2709 29.5875 29.2814 29.6332 29.2632 29.6935C29.1143 30.0564 28.9232 30.393 28.69 30.7033C28.4551 31.0059 28.206 31.2997 27.943 31.5848C27.8984 31.6351 27.8568 31.6807 27.8182 31.7217C27.1836 32.4129 26.5486 32.98 25.913 33.423C25.2757 33.8583 24.6789 34.0518 24.1226 34.0035C23.5722 33.9458 23.0969 33.5181 22.6968 32.7203C22.3661 33.5821 21.9912 34.426 21.5721 35.2521C21.3376 35.6267 21.0456 35.7861 20.6961 35.7303C20.3372 35.6686 20.1411 35.4091 20.108 34.9518C20.1011 33.4943 20.4752 32.1415 21.23 30.8935C21.4744 30.4925 21.8061 30.1396 22.2249 29.8347C22.3918 29.7241 22.5456 29.7128 22.6861 29.8007C22.8342 29.8868 22.9237 30.0145 22.9546 30.1838C22.9838 30.3454 22.9158 30.4853 22.7506 30.6035C22.2462 31.0243 21.8612 31.5458 21.5956 32.1682C21.3359 32.7811 21.1704 33.4205 21.0992 34.0862C21.5377 33.1355 21.9274 32.1639 22.2681 31.1716C22.3221 31.0229 22.4167 30.9289 22.552 30.8898C22.6949 30.8489 22.8263 30.8627 22.9463 30.9313C23.0739 30.9981 23.1515 31.1085 23.1789 31.2625C23.1336 31.762 23.2021 32.2513 23.3846 32.7304C23.5729 33.2001 23.941 33.4761 24.4891 33.5584C25.2411 33.3772 25.9533 32.9888 26.6259 32.393C27.2984 31.7973 27.882 31.198 28.3765 30.5951C28.6361 30.2948 28.8365 29.9641 28.9778 29.6028ZM29.9807 31.765L29.9859 31.7879C29.9842 31.7802 29.9795 31.7773 29.9719 31.7791C29.9777 31.7697 29.9807 31.765 29.9807 31.765ZM37.6746 27.5767C37.7098 27.5205 37.752 27.4947 37.8012 27.4994C37.8503 27.5041 37.8878 27.5276 37.9136 27.5698C37.9469 27.6102 37.946 27.6585 37.9108 27.7147C37.466 28.3943 36.9457 29.0071 36.3499 29.5532C35.7541 30.0992 35.1138 30.5913 34.429 31.0295C33.0097 31.9335 31.4568 32.4834 29.7702 32.6793L29.779 32.6652C29.779 32.6652 29.7752 32.6661 29.7676 32.6679C29.7676 32.6679 29.7667 32.664 29.765 32.6564C29.7895 33.8774 29.7593 35.0868 29.6744 36.2849C29.5835 37.4923 29.3341 38.6721 28.9259 39.8243C28.9077 39.8846 28.8699 39.9293 28.8125 39.9586C28.7475 39.9896 28.6848 39.996 28.6245 39.9778C28.5473 39.9555 28.4829 39.8501 28.4315 39.6615C28.38 39.4729 28.3424 39.2571 28.3185 39.0141C28.287 38.7728 28.2625 38.562 28.245 38.3816C28.2392 38.2868 28.2349 38.2156 28.232 38.1682C28.1299 36.2276 28.3702 34.3284 28.9526 32.4707C28.9109 31.5583 28.8853 30.6463 28.8759 29.7345C28.893 29.5302 28.9779 29.3944 29.1308 29.3271C29.2837 29.2599 29.4324 29.2617 29.577 29.3326C29.7292 29.4018 29.81 29.5436 29.8192 29.7579C29.808 29.9529 29.7968 30.1479 29.7855 30.3429C30.0933 29.6948 30.4695 29.1352 30.9142 28.664C31.3648 28.1835 31.877 28.0055 32.4508 28.1299C33.2136 28.4834 33.5828 28.9035 33.5586 29.3901C33.5419 29.8749 33.3104 30.3491 32.8639 30.8126C32.4157 31.2686 31.9398 31.6387 31.436 31.923C32.5124 31.7233 33.5368 31.3151 34.5091 30.6984C35.4815 30.0818 36.3184 29.364 37.0198 28.5452C37.27 28.239 37.4882 27.9162 37.6746 27.5767ZM28.7597 38.5277C28.9969 37.2946 29.0904 36.0465 29.0401 34.7834C29.0337 34.6165 29.0274 34.4497 29.021 34.2828C28.7199 35.6909 28.6328 37.1059 28.7597 38.5277ZM29.9719 31.7791C29.9601 31.7978 29.9598 31.8139 29.971 31.8274L29.9859 31.7879C30.0667 31.8254 30.1551 31.8611 30.2511 31.8952C30.4924 31.8637 30.729 31.7771 30.961 31.6355C31.0318 31.5952 31.1074 31.5577 31.1876 31.5232C31.5379 31.3384 31.9078 31.0648 32.2974 30.7025C32.6947 30.3385 32.9338 29.9668 33.0148 29.5874C33.0958 29.208 32.843 28.8934 32.2564 28.6437C31.9747 28.6043 31.7068 28.694 31.4525 28.9129C31.2059 29.13 30.9859 29.3931 30.7925 29.7022C30.5973 30.0036 30.4408 30.2641 30.323 30.4837C30.1337 30.88 29.9584 31.2851 29.7971 31.699C29.8217 31.7014 29.8472 31.7076 29.8735 31.7175C29.9034 31.7427 29.9362 31.7632 29.9719 31.7791ZM45.6968 25.7539C45.7149 25.6936 45.7516 25.6611 45.8066 25.6565C45.8617 25.6518 45.9097 25.6688 45.9506 25.7075C45.9898 25.7385 46.0004 25.7842 45.9822 25.8445C45.8333 26.2075 45.6422 26.5441 45.409 26.8543C45.174 27.157 44.925 27.4508 44.6619 27.7358C44.6174 27.7862 44.5758 27.8318 44.5371 27.8728C43.9026 28.564 43.2675 29.1311 42.6319 29.574C41.9946 30.0094 41.3978 30.2029 40.8415 30.1546C40.2911 30.0969 39.8159 29.6692 39.4157 28.8714C39.085 29.7332 38.7101 30.5771 38.291 31.4031C38.0566 31.7778 37.7646 31.9372 37.415 31.8814C37.0561 31.8197 36.8601 31.5602 36.8269 31.1028C36.8201 29.6453 37.1941 28.2926 37.949 27.0445C38.1934 26.6435 38.525 26.2906 38.9438 25.9858C39.1108 25.8752 39.2645 25.8638 39.405 25.9517C39.5531 26.0379 39.6426 26.1656 39.6736 26.3348C39.7027 26.4965 39.6347 26.6364 39.4696 26.7546C38.9652 27.1754 38.5802 27.6969 38.3146 28.3192C38.0548 28.9322 37.8894 29.5715 37.8182 30.2373C38.2567 29.2866 38.6463 28.315 38.987 27.3226C39.041 27.1739 39.1356 27.08 39.2709 27.0408C39.4138 26.9999 39.5453 27.0137 39.6653 27.0823C39.7929 27.1491 39.8704 27.2596 39.8978 27.4136C39.8525 27.9131 39.921 28.4023 40.1035 28.8814C40.2918 29.3512 40.66 29.6272 41.208 29.7094C41.96 29.5283 42.6723 29.1399 43.3448 28.5441C44.0174 27.9483 44.6009 27.349 45.0954 26.7461C45.355 26.4459 45.5554 26.1151 45.6968 25.7539ZM47.1064 25.9224C47.114 25.9207 47.117 25.916 47.1152 25.9084C47.117 25.916 47.114 25.9207 47.1064 25.9224ZM45.9828 29.6083C45.9752 29.61 45.9705 29.6071 45.9688 29.5995L45.9828 29.6083ZM48.7029 25.0739C48.5072 25.3033 48.3109 25.565 48.1139 25.8588C47.9036 26.1638 47.726 26.4372 47.5812 26.6789C47.4271 26.9148 47.3354 27.0562 47.3061 27.103C47.2 27.3038 47.0863 27.5064 46.965 27.7107C46.7809 28.0256 46.6063 28.3464 46.4409 28.6731C46.5138 28.2234 46.5602 27.868 46.5803 27.6068C46.6708 27.0248 46.7375 26.4443 46.7806 25.8652C46.7901 25.6626 46.7216 25.522 46.5753 25.4434C46.4289 25.3649 46.2784 25.3554 46.1238 25.4151C45.9692 25.4747 45.8787 25.6038 45.8522 25.8023C45.8316 26.0957 45.7977 26.384 45.7507 26.6674L45.7534 26.6789L45.6537 27.4474C45.5392 28.099 45.4598 28.7466 45.4155 29.3902C45.4049 29.5529 45.4537 29.678 45.562 29.7653C45.6721 29.8602 45.7973 29.8995 45.9379 29.8832C46.0784 29.8669 46.1897 29.7932 46.2718 29.662C46.362 29.4969 46.5224 29.1835 46.7527 28.7216C47.176 27.8786 47.6475 27.0886 48.1673 26.3516C48.353 26.1485 48.5261 25.9604 48.6867 25.7871C48.7291 26.3545 48.8837 26.8521 49.1505 27.2797C49.4911 27.8186 50.0616 28.0159 50.8621 27.8717C51.5597 27.5588 52.1634 27.0992 52.6732 26.4928C53.1829 25.8864 53.6488 25.246 54.0708 24.5717L54.4628 23.9763C54.5097 23.9014 54.5147 23.8361 54.4779 23.7805C54.4428 23.7324 54.393 23.7078 54.3286 23.7066C54.2642 23.7054 54.2085 23.7423 54.1616 23.8172C53.9705 24.2059 53.7569 24.5838 53.5207 24.9508C53.0519 25.7001 52.4973 26.3729 51.8569 26.9693C51.4574 27.3579 51.0213 27.5705 50.5487 27.6072C50.0837 27.6421 49.7147 27.4144 49.4415 26.9241C49.249 26.4714 49.1984 25.99 49.2894 25.48C49.3211 25.3043 49.3622 25.1346 49.4126 24.9706C49.5562 24.7933 49.6813 24.6402 49.7879 24.5114C49.9561 24.2322 49.951 23.9488 49.7726 23.6612C49.7691 23.6459 49.7617 23.6316 49.7506 23.6181C49.6693 23.5086 49.5548 23.4467 49.4073 23.4326C49.2673 23.4167 49.1473 23.5045 49.047 23.6959C48.8975 23.9869 48.7828 24.4462 48.7029 25.0739ZM56.4066 22.3384C56.4647 22.1727 56.5652 22.0694 56.7081 22.0285C56.8568 21.9782 56.9921 21.9911 57.1138 22.0673C57.2415 22.1341 57.3055 22.2557 57.306 22.4319C57.3059 24.8691 57.2062 27.3091 57.007 29.752C57.1253 29.7087 57.229 29.6889 57.318 29.6924C57.4146 29.6942 57.4799 29.7514 57.5138 29.8638C57.5091 29.913 57.4912 29.9572 57.4601 29.9964C57.4291 30.0356 57.3898 30.0567 57.3424 30.0596C57.2153 30.0648 57.0918 30.0852 56.9717 30.1209C56.8321 31.6041 56.5951 33.0816 56.2605 34.5536C55.9454 35.9008 55.5207 37.2252 54.9866 38.5266C54.9232 38.6695 54.8239 38.7605 54.6887 38.7996C54.5475 38.8482 54.4123 38.8352 54.2829 38.7608C54.0622 38.6031 53.8724 38.266 53.7134 37.7495C53.5485 37.2423 53.4797 36.717 53.5069 36.1736C53.556 35.1682 53.7926 34.1237 54.2165 33.04C54.6328 31.9581 55.2361 31.0616 56.0265 30.3505C56.2072 28.5933 56.3111 26.8337 56.3384 25.0718C56.1601 25.5858 55.9368 26.0782 55.6683 26.5488C55.2944 27.1881 54.8665 27.5231 54.3845 27.5539C53.895 27.5864 53.5757 27.227 53.4268 26.4756C53.3832 25.8683 53.4494 25.2679 53.6254 24.6742C53.8014 24.0805 54.0611 23.5197 54.4045 22.9917C54.7743 22.4736 55.112 22.1474 55.4178 22.0128C55.7235 21.8783 55.9636 21.8591 56.138 21.9552C56.3125 22.0514 56.3894 22.194 56.3688 22.3831C56.3465 22.5646 56.1968 22.7153 55.9197 22.8352C55.5871 22.992 55.2745 23.3405 54.982 23.8809C54.6954 24.4118 54.4992 24.9701 54.3935 25.5556C54.2784 26.1352 54.3224 26.5701 54.5254 26.86L54.4631 26.8503C54.7804 26.9055 55.0425 26.773 55.2494 26.4528C55.4639 26.1309 55.6351 25.7428 55.763 25.2884C55.8985 24.8323 56.0018 24.4278 56.0728 24.0747C56.0998 23.9482 56.1265 23.8379 56.1529 23.7436C56.1993 23.4924 56.2448 23.2374 56.2895 22.9786C56.3294 22.769 56.3684 22.5556 56.4066 22.3384ZM54.3361 37.7384C55.1858 35.4744 55.7351 33.1594 55.9841 30.7932C55.3003 31.4797 54.7872 32.3153 54.4447 33.3001C54.0964 34.2942 53.9214 35.2404 53.9197 36.1387C53.9139 36.148 53.9127 36.1603 53.9162 36.1756C53.9325 36.4203 53.9672 36.6929 54.0203 36.9934C54.0734 37.2938 54.1787 37.5421 54.3361 37.7384ZM60.3888 22.9729C60.3905 22.9805 60.3876 22.9852 60.38 22.9869C60.3876 22.9852 60.3905 22.9805 60.3888 22.9729ZM68.2689 20.5334C68.4891 20.4106 68.5943 20.4144 68.5842 20.545C68.5725 20.668 68.4901 20.8673 68.3371 21.143C68.1824 21.4112 67.9998 21.6977 67.7894 22.0027C67.5773 22.3 67.3857 22.5646 67.2146 22.7964C67.0493 23.0188 66.9474 23.1505 66.9087 23.1915C66.7634 23.3612 66.616 23.5395 66.4666 23.7262C66.0939 24.1968 65.6952 24.6413 65.2704 25.0598C64.8439 25.4706 64.3493 25.7769 63.7864 25.9786C63.3402 26.0253 63.0059 25.9138 62.7835 25.6443C62.5611 25.3749 62.4149 25.0357 62.3449 24.627C62.2748 24.2182 62.2443 23.8244 62.2533 23.4455C61.9854 23.9882 61.6613 24.4957 61.281 24.9681C60.8873 25.3473 60.5379 25.4839 60.2329 25.3777C59.9279 25.2716 59.6964 25.0323 59.5385 24.6597C59.3806 24.2872 59.3255 23.8911 59.3731 23.4712C59.388 22.9788 59.4702 22.6392 59.6196 22.4525C59.7766 22.264 59.9383 22.1827 60.1046 22.2085C60.2785 22.2326 60.3999 22.3249 60.4689 22.4854C60.5438 22.6365 60.5045 22.8139 60.351 23.0176C60.3586 23.0159 60.3662 23.0141 60.3738 23.0124C60.3797 23.003 60.3817 22.9945 60.38 22.9869C60.3741 22.9963 60.3691 23.0095 60.365 23.0264C60.2764 23.3034 60.2157 23.614 60.1827 23.9583C60.1556 24.2932 60.2298 24.5808 60.4053 24.8209C60.598 24.8568 60.7866 24.7532 60.9712 24.5103C61.154 24.2598 61.3216 23.9606 61.4741 23.6129C61.6247 23.2575 61.752 22.9396 61.8558 22.6592C61.9156 22.5011 61.9634 22.3779 61.9991 22.2895C62.0408 22.1917 62.0798 22.0825 62.1161 21.9619C62.1877 21.6809 62.3097 21.4444 62.4819 21.2524C62.5997 21.1371 62.7265 21.0959 62.8623 21.1287C63.004 21.1522 63.1135 21.2272 63.1907 21.3538C63.2662 21.4727 63.2684 21.6044 63.1975 21.749C63.1758 21.7941 63.1571 21.8345 63.1412 21.8702C63.1336 21.872 63.1298 21.8729 63.1298 21.8729L63.1439 21.8816C63.138 21.891 63.1292 21.9051 63.1175 21.9238C63.1116 21.9332 63.1096 21.9416 63.1113 21.9493C63.0363 22.1108 62.9774 22.2727 62.9345 22.4349C62.745 23.1439 62.6975 23.8603 62.792 24.5842C62.966 25.4099 63.3143 25.7386 63.8367 25.5702C64.3667 25.4001 64.949 24.9694 65.5836 24.2782C66.2257 23.5852 66.802 22.8673 67.3124 22.1245C67.8228 21.3817 68.1417 20.8513 68.2689 20.5334ZM75.7183 18.7824C75.8155 18.8562 75.8277 18.9616 75.755 19.0986C75.69 19.2339 75.605 19.3697 75.5001 19.506C75.4263 19.6032 75.3756 19.679 75.348 19.7335C75.1183 20.0589 74.7175 20.5119 74.1457 21.0925C73.5739 21.6731 72.9303 22.2381 72.2151 22.7876C71.4998 23.3371 70.8197 23.7261 70.1749 23.9548C69.5301 24.1834 69.0245 24.1114 68.6581 23.7388C68.2596 23.1571 68.053 22.5032 68.0381 21.7771C68.0139 21.0451 68.1452 20.3615 68.4318 19.7263C68.6089 19.3809 68.8652 19.1536 69.2008 19.0442C69.5363 18.9349 69.7968 19.0914 69.9822 19.5137C70.0864 19.7222 70.0777 19.9807 69.9564 20.2893C69.8332 20.5902 69.66 20.8826 69.4368 21.1665C69.2212 21.4486 69.024 21.6543 68.8453 21.7836C68.8644 22.2843 68.9315 22.6978 69.0467 23.024C69.2198 23.4972 69.5634 23.6666 70.0776 23.5322C70.5994 23.3961 71.1743 23.1074 71.8023 22.6662C72.4361 22.2156 73.0143 21.7498 73.5369 21.2688C74.0595 20.7877 74.4148 20.4333 74.6029 20.2056C74.9668 19.8012 75.2689 19.3548 75.5092 18.8666C75.5309 18.8215 75.5608 18.7946 75.5988 18.7858C75.6428 18.7677 75.6826 18.7666 75.7183 18.7824ZM69.3294 19.9165C69.0411 20.2314 68.8831 20.6766 68.8553 21.2522C69.0053 21.0333 69.1357 20.7989 69.2465 20.5489C69.3556 20.2913 69.3832 20.0805 69.3294 19.9165ZM81.9475 17.3724C81.9768 17.3256 82.0122 17.3054 82.0538 17.3118C82.0954 17.3183 82.1243 17.3397 82.1407 17.376C82.1647 17.4106 82.1612 17.4475 82.1301 17.4867C81.5582 18.1715 80.9325 18.7966 80.253 19.3619C79.5734 19.9272 78.8728 20.4532 78.1511 20.94C77.99 21.0413 77.8231 21.1518 77.6503 21.2718C77.6426 21.2736 77.6388 21.2744 77.6388 21.2744C77.8437 21.4678 77.9987 21.6886 78.104 21.937C78.2296 22.5173 78.2053 23.1082 78.0311 23.7094C77.8644 24.309 77.6293 24.8722 77.3257 25.399C77.3199 25.4084 77.3111 25.4224 77.2994 25.4412C77.1997 25.6004 77.0614 25.8006 76.8845 26.0418C76.6999 26.2847 76.5095 26.4848 76.3132 26.6423C76.1093 26.8014 75.9269 26.8274 75.7659 26.7201C75.3844 26.2468 75.184 25.359 75.1648 24.0566C75.1456 22.7543 75.2383 21.294 75.4429 19.6755C75.6399 18.0589 75.872 16.5424 76.1392 15.126C76.414 13.7079 76.6432 12.649 76.8269 11.9494C76.8691 11.8194 76.9075 11.6903 76.9421 11.5621C77.0319 11.2207 77.1395 10.8873 77.265 10.5618C77.3888 10.2287 77.5669 9.92308 77.7996 9.64506C77.9197 9.50517 78.057 9.45752 78.2116 9.5021C78.3661 9.54669 78.4551 9.65448 78.4784 9.82548C78.5037 10.7015 78.4752 11.5699 78.3927 12.4306C78.1934 14.0719 77.7967 15.6744 77.2027 17.2381C77.1986 17.2551 77.1857 17.2862 77.164 17.3312C77.1083 17.4723 77.0168 17.7018 76.8896 18.0197C76.7682 18.3283 76.6345 18.6356 76.4885 18.9418C76.3898 19.662 76.2995 20.3842 76.2177 21.1085C76.2388 21.0957 76.2599 21.0828 76.281 21.0699C76.551 20.9196 76.8151 20.8828 77.0733 20.9597C77.9249 20.7236 78.8439 20.2234 79.8304 19.4591C80.8152 18.6873 81.5209 17.9917 81.9475 17.3724ZM78.0262 11.2043C77.801 11.8975 77.6229 12.6039 77.4919 13.3235C77.4297 13.6104 77.3637 13.8981 77.2939 14.1868C77.0385 15.4802 76.8153 16.7742 76.6243 18.0688C77.4485 16.2516 77.9215 14.371 78.0432 12.4269C78.0444 12.3625 78.0447 12.2943 78.0441 12.2223C78.0695 11.8797 78.0635 11.5404 78.0262 11.2043ZM76.7382 21.8545L76.7242 21.8458C76.6668 21.875 76.6056 21.9051 76.5405 21.9361C76.3695 21.9595 76.2387 21.9134 76.148 21.798C76.1227 22.0363 76.1021 22.2776 76.0861 22.5218C76.0649 22.8473 76.0398 23.1738 76.0109 23.5011C75.9644 23.9607 75.937 24.416 75.9285 24.8669C75.9219 25.3254 75.9647 25.7725 76.057 26.2082C76.4747 25.7593 76.7979 25.248 77.0266 24.6742C77.2553 24.1005 77.3856 23.5173 77.4175 22.9247C77.427 22.7221 77.4069 22.5304 77.3572 22.3494C77.3063 22.2328 77.2165 22.1212 77.0877 22.0146C76.9666 21.9062 76.8501 21.8529 76.7382 21.8545ZM89.8009 15.6005C89.8191 15.5402 89.8557 15.5077 89.9108 15.5031C89.9658 15.4984 90.0138 15.5154 90.0548 15.5541C90.094 15.5851 90.1045 15.6308 90.0863 15.6911C89.9374 16.0541 89.7463 16.3907 89.5131 16.7009C89.2782 17.0035 89.0291 17.2974 88.7661 17.5824C88.7215 17.6327 88.6799 17.6784 88.6413 17.7194C88.0067 18.4106 87.3717 18.9777 86.7361 19.4206C86.0988 19.8559 85.502 20.0495 84.9457 20.0011C84.3953 19.9435 83.92 19.5158 83.5199 18.718C83.1892 19.5798 82.8143 20.4237 82.3952 21.2497C82.1607 21.6243 81.8687 21.7838 81.5192 21.728C81.1603 21.6663 80.9642 21.4068 80.9311 20.9494C80.9242 19.4919 81.2983 18.1392 82.0531 16.8911C82.2975 16.4901 82.6292 16.1372 83.048 15.8323C83.2149 15.7218 83.3687 15.7104 83.5092 15.7983C83.6573 15.8845 83.7468 16.0122 83.7777 16.1814C83.8069 16.3431 83.7389 16.483 83.5737 16.6012C83.0693 17.0219 82.6843 17.5435 82.4187 18.1658C82.159 18.7788 81.9935 19.4181 81.9223 20.0839C82.3608 19.1331 82.7505 18.1616 83.0912 17.1692C83.1452 17.0205 83.2398 16.9266 83.3751 16.8874C83.518 16.8465 83.6494 16.8603 83.7694 16.9289C83.897 16.9957 83.9746 17.1062 84.002 17.2602C83.9567 17.7596 84.0252 18.2489 84.2077 18.728C84.396 19.1977 84.7641 19.4737 85.3122 19.556C86.0642 19.3749 86.7764 18.9864 87.449 18.3907C88.1215 17.7949 88.7051 17.1956 89.1996 16.5927C89.4592 16.2925 89.6596 15.9617 89.8009 15.6005ZM36.1596 55.6798C36.141 55.3554 36.236 55.1411 36.4445 55.037C36.6607 54.9311 36.8738 54.9342 37.084 55.0461C37.2959 55.1657 37.3827 55.3862 37.3445 55.7077C36.8436 57.258 36.0648 58.8723 35.0081 60.5506C33.9591 62.2271 32.7183 63.8195 31.2858 65.3277C29.8609 66.8343 28.3333 68.1038 26.7031 69.1365C25.0747 70.1768 23.4289 70.8283 21.7657 71.0909C20.9582 71.2047 20.151 71.1981 19.3441 71.0712C18.337 70.9102 17.5456 70.4671 16.9697 69.7419C16.3939 69.0166 15.9792 68.1902 15.7255 67.2625C15.2521 65.6238 15.0398 63.953 15.0887 62.2502C15.1394 60.555 15.3733 58.8898 15.7905 57.2545C16.6167 54.0179 17.7658 50.8954 19.2378 47.8869C20.7173 44.8766 22.5619 42.1111 24.7714 39.5902C25.41 38.882 26.1303 38.2151 26.9323 37.5896C27.7419 36.9622 28.6366 36.6 29.6163 36.5027C29.9899 36.4888 30.3485 36.5666 30.6921 36.736C31.0416 36.8961 31.3243 37.1316 31.5403 37.4427C31.7755 37.8375 31.921 38.2609 31.977 38.713C32.0406 39.1633 32.0635 39.611 32.0457 40.056C31.9403 43.4634 31.1094 46.6971 29.5531 49.7571C29.4745 49.9034 29.3609 50.0017 29.2121 50.052C29.0616 50.0947 28.9102 50.0814 28.758 50.0122C28.6023 49.9278 28.5022 49.8066 28.4578 49.6485C28.4134 49.4903 28.4372 49.3325 28.5292 49.1751C29.4582 47.6384 30.1608 45.9895 30.6372 44.2284C31.1213 42.4655 31.3196 40.6802 31.2321 38.8725C31.1895 38.5135 31.0764 38.1788 30.8927 37.8683C30.5498 37.4582 30.1479 37.2622 29.687 37.2801C29.2338 37.2962 28.7802 37.4327 28.3262 37.6895C27.8705 37.9388 27.476 38.21 27.1426 38.5032C25.8432 39.6842 24.6459 41.0822 23.5506 42.6972C22.4553 44.3122 21.4704 46.006 20.5957 47.7787C19.7194 49.5437 18.9599 51.2418 18.3172 52.8728C17.7015 54.4817 17.1778 56.1415 16.7459 57.8523C16.314 59.5631 16.0885 61.2825 16.0695 63.0105C16.0598 64.7444 16.3701 66.4407 17.0005 68.0993C17.1946 68.5597 17.4541 68.973 17.7789 69.3391C18.1131 69.7111 18.5193 69.9784 18.9977 70.1408C19.4918 70.2676 19.9889 70.3375 20.489 70.3507C21.9482 70.3514 23.3508 70.0365 24.6968 69.406C26.0504 68.7737 27.3125 67.9701 28.4829 66.9951C29.661 66.0184 30.7185 65.0054 31.6554 63.9559C32.2074 63.3238 32.8478 62.519 33.5768 61.5415C34.3134 60.5622 34.9416 59.5477 35.4616 58.4981C35.9891 57.4467 36.2218 56.5072 36.1596 55.6798ZM38.5019 49.4526C38.5096 49.4508 38.5125 49.4462 38.5107 49.4386C38.5125 49.4462 38.5096 49.4508 38.5019 49.4526ZM37.3783 53.1385C37.3707 53.1402 37.366 53.1373 37.3643 53.1297L37.3783 53.1385ZM40.0984 48.6041C39.9027 48.8335 39.7064 49.0952 39.5095 49.389C39.2991 49.694 39.1215 49.9674 38.9767 50.2091C38.8226 50.445 38.7309 50.5864 38.7016 50.6332C38.5955 50.834 38.4818 51.0366 38.3605 51.2409C38.1764 51.5558 38.0018 51.8766 37.8365 52.2033C37.9093 51.7536 37.9558 51.3982 37.9758 51.137C38.0663 50.555 38.1331 49.9744 38.1761 49.3953C38.1856 49.1927 38.1171 49.0522 37.9708 48.9736C37.8244 48.8951 37.674 48.8856 37.5193 48.9453C37.3647 49.0049 37.2742 49.134 37.2477 49.3325C37.2271 49.6258 37.1932 49.9142 37.1462 50.1976L37.1489 50.209L37.0492 50.9775C36.9347 51.6292 36.8553 52.2768 36.811 52.9203C36.8004 53.0831 36.8492 53.2082 36.9575 53.2955C37.0676 53.3904 37.1929 53.4297 37.3334 53.4134C37.4739 53.3971 37.5852 53.3233 37.6673 53.1922C37.7576 53.0271 37.9179 52.7136 38.1482 52.2517C38.5715 51.4087 39.043 50.6188 39.5628 49.8818C39.7485 49.6787 39.9216 49.4905 40.0822 49.3173C40.1246 49.8847 40.2792 50.3823 40.546 50.8099C40.8866 51.3488 41.4571 51.5461 42.2577 51.4019C42.9552 51.089 43.5589 50.6293 44.0687 50.023C44.5784 49.4166 45.0443 48.7762 45.4663 48.1018L45.8583 47.5065C45.9052 47.4316 45.9102 47.3663 45.8734 47.3107C45.8383 47.2626 45.7885 47.238 45.7241 47.2368C45.6597 47.2356 45.604 47.2725 45.5571 47.3474C45.366 47.7361 45.1524 48.114 44.9162 48.481C44.4474 49.2303 43.8928 49.9031 43.2524 50.4995C42.8529 50.8881 42.4168 51.1007 41.9442 51.1373C41.4793 51.1722 41.1102 50.9445 40.837 50.4543C40.6446 50.0015 40.5939 49.5202 40.6849 49.0102C40.7166 48.8345 40.7577 48.6647 40.8081 48.5008C40.9517 48.3234 41.0768 48.1704 41.1834 48.0416C41.3516 47.7624 41.3465 47.479 41.1681 47.1914C41.1646 47.1761 41.1573 47.1618 41.1461 47.1483C41.0648 47.0388 40.9504 46.9769 40.8028 46.9628C40.6629 46.9469 40.5428 47.0347 40.4425 47.2261C40.2931 47.5171 40.1783 47.9764 40.0984 48.6041ZM52.9986 45.5621C53.0958 45.6359 53.1081 45.7413 53.0354 45.8783C52.9703 46.0135 52.8853 46.1494 52.7804 46.2857C52.7066 46.3829 52.6559 46.4587 52.6284 46.5132C52.3986 46.8386 51.9979 47.2916 51.4261 47.8722C50.8542 48.4528 50.2107 49.0178 49.4954 49.5673C48.7801 50.1168 48.1001 50.5058 47.4552 50.7344C46.8104 50.9631 46.3048 50.8911 45.9384 50.5185C45.54 49.9368 45.3333 49.2829 45.3185 48.5568C45.2943 47.8248 45.4255 47.1412 45.7122 46.506C45.8892 46.1606 46.1455 45.9332 46.4811 45.8239C46.8167 45.7146 47.0772 45.8711 47.2626 46.2934C47.3667 46.5019 47.3581 46.7604 47.2367 47.0689C47.1136 47.3699 46.9404 47.6623 46.7171 47.9462C46.5015 48.2283 46.3043 48.434 46.1257 48.5633C46.1447 49.064 46.2119 49.4774 46.327 49.8037C46.5001 50.2769 46.8438 50.4463 47.358 50.3119C47.8798 50.1757 48.4547 49.8871 49.0826 49.4459C49.7165 48.9953 50.2947 48.5295 50.8173 48.0484C51.3398 47.5674 51.6952 47.213 51.8833 46.9853C52.2471 46.5809 52.5492 46.1345 52.7896 45.6463C52.8112 45.6012 52.8411 45.5743 52.8792 45.5655C52.9231 45.5474 52.9629 45.5463 52.9986 45.5621ZM46.6098 46.6962C46.3215 47.0111 46.1634 47.4563 46.1356 48.0319C46.2856 47.813 46.4161 47.5785 46.5269 47.3286C46.6359 47.071 46.6635 46.8602 46.6098 46.6962ZM56.7603 46.2834C56.8989 45.5621 56.8819 44.9487 56.7094 44.4433C56.5463 43.9437 56.1875 43.6735 55.633 43.6328C55.2752 43.611 54.9045 43.6723 54.5209 43.8167C54.2187 43.9665 53.9621 44.1578 53.7511 44.3908C53.5467 44.5821 53.375 44.794 53.2361 45.0264C53.1558 45.1652 53.0734 45.3124 52.989 45.4681L52.8721 45.6393L52.6224 46.0696C52.5826 46.175 52.5805 46.2356 52.6162 46.2514C52.6742 46.2942 52.7397 46.2831 52.813 46.2181L52.9185 46.0495L53.111 45.7888C53.3671 45.369 53.6217 45.0298 53.8748 44.7711C54.1009 44.5347 54.2755 44.3702 54.3986 44.2778C54.6903 44.0824 55.0595 43.9974 55.5063 44.0228C55.8149 44.0399 55.9925 44.1674 56.0393 44.4051C56.0877 44.6505 56.0952 44.9093 56.0617 45.1816L56.0484 45.4372C55.9996 45.8172 55.8942 46.2824 55.7323 46.8328C55.6736 47.1349 55.5859 47.4156 55.4692 47.675C55.2107 48.3277 54.8852 48.6552 54.4929 48.6573C53.9746 48.7045 53.5511 48.5014 53.2222 48.048C53.09 47.7176 52.9047 47.644 52.6663 47.8272C52.4208 48.0841 52.4295 48.3828 52.6922 48.7231C53.2815 49.333 53.9009 49.6033 54.5504 49.534C55.1518 49.3955 55.5448 49.2048 55.7294 48.9619C55.8724 48.8167 56.0042 48.606 56.125 48.3297C56.1825 48.1962 56.2361 48.0636 56.286 47.9319C56.7337 47.1955 57.1076 46.6083 57.4077 46.1705C57.3977 46.3011 57.3847 46.4363 57.3688 46.5763C57.3594 46.6746 57.3529 46.7683 57.3494 46.8573C57.3217 47.1202 57.311 47.4915 57.3171 47.9711C57.3217 48.1303 57.3278 48.2612 57.3354 48.3637C57.3412 48.4586 57.3953 48.5022 57.4978 48.4947C57.6079 48.4853 57.6993 48.4122 57.772 48.2752C57.9169 47.7208 58.2109 46.9957 58.6541 46.1C58.7574 46.8619 59.0136 47.4001 59.4227 47.7148C59.7417 47.9861 60.2578 48.0517 60.9711 47.9115C61.7688 47.7199 62.4078 47.4485 62.8881 47.0974C63.3486 46.799 63.9646 46.1842 64.7363 45.2529C65.508 44.3217 66.1368 43.4835 66.6226 42.7383C66.6425 42.6856 66.6405 42.642 66.6165 42.6074C66.5925 42.5729 66.5597 42.5524 66.5182 42.5459C66.469 42.5412 66.4297 42.5623 66.4004 42.6091C66.2316 42.9205 66.0441 43.2202 65.8378 43.5082C65.236 44.3763 64.5583 45.1937 63.8049 45.9604C63.7527 46.0125 63.6977 46.0693 63.6397 46.1307C63.2577 46.4912 62.9879 46.7297 62.8303 46.8462C62.0378 47.2691 61.4015 47.4998 60.9213 47.5382C60.5072 47.5854 60.1589 47.5173 59.8761 47.3338C59.46 46.9887 59.2731 46.5427 59.3156 45.9958C59.4775 45.4455 59.6918 44.9311 59.9585 44.4529C60.2175 43.9764 60.5231 43.6495 60.8751 43.4722C61.0619 43.5174 61.2133 43.4786 61.3293 43.3557C61.4394 43.2421 61.4875 43.1028 61.4735 42.9376C61.4613 42.7801 61.3659 42.6618 61.1874 42.5826C60.9087 42.4864 60.6431 42.4995 60.3907 42.6217C60.1306 42.7457 59.9154 42.9075 59.7449 43.1071C59.48 43.3845 59.2052 43.8447 58.9202 44.4875C58.8528 44.6473 58.7892 44.8062 58.7294 44.9643C58.4455 45.7512 58.1568 46.3949 57.8632 46.8954C57.8702 46.8216 57.8752 46.7563 57.8782 46.6995C57.9447 46.0829 57.9769 45.6306 57.9747 45.3425C58.0217 44.9549 57.9758 44.773 57.837 44.797C57.6983 44.8209 57.5925 44.9013 57.5198 45.0383C57.3493 45.3422 57.0794 45.8412 56.7101 46.5355C56.7306 46.4506 56.7473 46.3666 56.7603 46.2834ZM44.8355 49.9065L44.8267 49.9206C44.8344 49.9188 44.839 49.9218 44.8408 49.9294L44.8355 49.9065ZM74.2987 40.7186C74.3169 40.6583 74.3535 40.6258 74.4086 40.6212C74.4636 40.6165 74.5116 40.6335 74.5526 40.6722C74.5918 40.7033 74.6023 40.7489 74.5842 40.8092C74.4352 41.1722 74.2442 41.5088 74.0109 41.8191C73.776 42.1217 73.5269 42.4155 73.2639 42.7005C73.2193 42.7509 73.1777 42.7965 73.1391 42.8375C72.5045 43.5287 71.8695 44.0958 71.2339 44.5387C70.5966 44.9741 69.9998 45.1676 69.4435 45.1193C68.8931 45.0616 68.4178 44.6339 68.0177 43.8361C67.687 44.6979 67.3121 45.5418 66.893 46.3678C66.6585 46.7425 66.3665 46.9019 66.017 46.8461C65.6581 46.7844 65.462 46.5249 65.4289 46.0675C65.4221 44.6101 65.7961 43.2573 66.5509 42.0092C66.7953 41.6083 67.127 41.2553 67.5458 40.9505C67.7127 40.8399 67.8665 40.8285 68.007 40.9165C68.1551 41.0026 68.2446 41.1303 68.2755 41.2996C68.3047 41.4612 68.2367 41.6011 68.0715 41.7193C67.5671 42.1401 67.1821 42.6616 66.9165 43.2839C66.6568 43.8969 66.4913 44.5362 66.4201 45.202C66.8587 44.2513 67.2483 43.2797 67.589 42.2874C67.643 42.1386 67.7376 42.0447 67.8729 42.0055C68.0158 41.9646 68.1472 41.9785 68.2672 42.047C68.3949 42.1139 68.4724 42.2243 68.4998 42.3783C68.4545 42.8778 68.523 43.3671 68.7055 43.8461C68.8938 44.3159 69.262 44.5919 69.81 44.6741C70.562 44.493 71.2742 44.1046 71.9468 43.5088C72.6193 42.9131 73.2029 42.3137 73.6974 41.7109C73.957 41.4106 74.1574 41.0799 74.2987 40.7186ZM75.7084 40.8871C75.716 40.8854 75.719 40.8807 75.7172 40.8731C75.719 40.8807 75.716 40.8854 75.7084 40.8871ZM74.5848 44.573C74.5772 44.5748 74.5725 44.5718 74.5708 44.5642L74.5848 44.573ZM77.3048 40.0386C77.1091 40.268 76.9128 40.5297 76.7159 40.8235C76.5055 41.1285 76.328 41.4019 76.1832 41.6437C76.0291 41.8796 75.9374 42.0209 75.9081 42.0678C75.802 42.2685 75.6883 42.4711 75.5669 42.6754C75.3829 42.9903 75.2082 43.3111 75.0429 43.6378C75.1158 43.1881 75.1622 42.8327 75.1823 42.5715C75.2728 41.9895 75.3395 41.409 75.3826 40.8299C75.392 40.6273 75.3236 40.4867 75.1773 40.4082C75.0309 40.3296 74.8804 40.3202 74.7258 40.3798C74.5712 40.4395 74.4806 40.5685 74.4542 40.767C74.4335 41.0604 74.3997 41.3488 74.3527 41.6321L74.3553 41.6436L74.2557 42.4121C74.1412 43.0638 74.0618 43.7114 74.0175 44.3549C74.0069 44.5177 74.0557 44.6427 74.164 44.73C74.274 44.8249 74.3993 44.8642 74.5399 44.8479C74.6804 44.8316 74.7917 44.7579 74.8738 44.6267C74.964 44.4617 75.1243 44.1482 75.3547 43.6863C75.7779 42.8433 76.2495 42.0533 76.7692 41.3163C76.955 41.1132 77.1281 40.9251 77.2886 40.7518C77.3311 41.3193 77.4857 41.8168 77.7525 42.2444C78.093 42.7833 78.6636 42.9806 79.4641 42.8364C80.1617 42.5235 80.7654 42.0639 81.2751 41.4575C81.7849 40.8511 82.2508 40.2107 82.6727 39.5364L83.0648 38.9411C83.1117 38.8661 83.1167 38.8008 83.0798 38.7452C83.0447 38.6972 82.995 38.6725 82.9306 38.6713C82.8661 38.6701 82.8105 38.707 82.7636 38.7819C82.5725 39.1706 82.3589 39.5485 82.1227 39.9155C81.6538 40.6648 81.0992 41.3376 80.4589 41.934C80.0593 42.3226 79.6233 42.5352 79.1507 42.5719C78.6857 42.6068 78.3166 42.3791 78.0434 41.8888C77.851 41.4361 77.8003 40.9547 77.8914 40.4447C77.9231 40.2691 77.9642 40.0993 78.0146 39.9353C78.1582 39.758 78.2833 39.6049 78.3899 39.4762C78.5581 39.1969 78.553 38.9135 78.3745 38.6259C78.371 38.6107 78.3637 38.5963 78.3526 38.5828C78.2713 38.4733 78.1568 38.4115 78.0093 38.3973C77.8693 38.3814 77.7492 38.4692 77.649 38.6606C77.4995 38.9516 77.3848 39.4109 77.3048 40.0386ZM90.7207 36.938C90.7389 36.8777 90.7755 36.8453 90.8306 36.8406C90.8856 36.836 90.9336 36.853 90.9746 36.8916C91.0138 36.9227 91.0243 36.9684 91.0062 37.0287C90.8572 37.3916 90.6662 37.7282 90.4329 38.0385C90.198 38.3411 89.9489 38.6349 89.6859 38.92C89.6413 38.9703 89.5997 39.0159 89.5611 39.0569C88.9265 39.7481 88.2915 40.3152 87.6559 40.7582C87.0186 41.1935 86.4218 41.387 85.8655 41.3387C85.3151 41.281 84.8398 40.8533 84.4397 40.0555C84.109 40.9173 83.7341 41.7612 83.315 42.5873C83.0805 42.9619 82.7886 43.1213 82.439 43.0655C82.0801 43.0038 81.884 42.7443 81.8509 42.287C81.8441 40.8295 82.2181 39.4767 82.973 38.2287C83.2173 37.8277 83.549 37.4748 83.9678 37.1699C84.1348 37.0593 84.2885 37.048 84.429 37.1359C84.5771 37.222 84.6666 37.3497 84.6975 37.519C84.7267 37.6806 84.6587 37.8205 84.4935 37.9387C83.9891 38.3595 83.6041 38.881 83.3386 39.5034C83.0788 40.1163 82.9134 40.7557 82.8422 41.4214C83.2807 40.4707 83.6703 39.4991 84.011 38.5068C84.065 38.3581 84.1596 38.2641 84.2949 38.225C84.4378 38.1841 84.5692 38.1979 84.6892 38.2665C84.8169 38.3333 84.8944 38.4437 84.9218 38.5977C84.8765 39.0972 84.945 39.5865 85.1275 40.0656C85.3158 40.5353 85.684 40.8113 86.232 40.8936C86.984 40.7124 87.6962 40.324 88.3688 39.7282C89.0413 39.1325 89.6249 38.5332 90.1194 37.9303C90.379 37.63 90.5794 37.2993 90.7207 36.938Z" fill="#C6659F"/>
</svg>
