<svg width="220" height="48" viewBox="0 0 242 48" fill="none" xmlns="http://www.w3.org/2000/svg">
<path d="M62.125 2.38281C62.125 2.64844 61.9766 2.78125 61.6797 2.78125C61.7266 2.78125 61.2109 2.60938 60.1328 2.26562C59.0547 1.90625 57.8281 1.72656 56.4531 1.72656C53.5469 1.72656 50.7734 2.57031 48.1328 4.25781C45.5547 5.91406 42.6797 8.67187 39.5078 12.5312C37.1797 15.3438 34.9766 17.1641 32.8984 17.9922C33.2422 18.7891 33.4141 19.75 33.4141 20.875C33.4141 23.375 31.9922 27.0547 29.1484 31.9141C27.0391 35.5078 25.9844 38.1484 25.9844 39.8359C25.9844 41.3828 26.6094 42.7188 27.8594 43.8438C29.1562 45.0156 30.7344 45.6016 32.5938 45.6016C34.8438 45.6016 36.9375 44.5859 38.875 42.5547C40.875 40.4766 41.875 38.1641 41.875 35.6172C41.875 34.6016 41.5547 33.7656 40.9141 33.1094C40.2734 32.4375 39.4375 32.1016 38.4062 32.1016C36.5 32.1016 34.7109 33.1875 33.0391 35.3594C31.4453 37.4062 30.625 39.4609 30.5781 41.5234C30.5781 41.9922 30.4531 42.2266 30.2031 42.2266C29.875 42.2266 29.7109 41.9375 29.7109 41.3594C29.7109 39.0781 30.5938 36.8438 32.3594 34.6562C34.2031 32.375 36.2188 31.2344 38.4062 31.2344C39.7031 31.2344 40.75 31.6562 41.5469 32.5C42.3594 33.3438 42.7656 34.4297 42.7656 35.7578C42.7656 38.5859 41.7031 41.0859 39.5781 43.2578C37.4688 45.4297 35.0781 46.5156 32.4062 46.5156C30.0156 46.5156 28.0547 45.6875 26.5234 44.0312C25.0078 42.3906 24.25 40.3047 24.25 37.7734C24.25 35.2734 25.1484 32.6797 26.9453 29.9922C30.3047 24.9453 31.9844 21.3906 31.9844 19.3281C31.9844 19.0469 31.9297 18.7109 31.8203 18.3203C31.0234 18.5234 30.1484 18.625 29.1953 18.625C27.4141 22.375 24.9922 25.4062 21.9297 27.7188C18.7266 30.125 15.3516 31.3281 11.8047 31.3281C8.67969 31.3281 6.01562 30.5 3.8125 28.8438C1.71875 27.25 0.671875 25.4375 0.671875 23.4062C0.671875 21.4531 1.625 19.7969 3.53125 18.4375C5.4375 17.0781 7.82812 16.3984 10.7031 16.3984C12.9844 16.3984 15.1172 16.8516 17.1016 17.7578C17.8359 18.0859 18.6875 18.6094 19.6562 19.3281C20.7969 20.1875 21.3672 20.8281 21.3672 21.25C21.3672 21.4531 21.2734 21.5547 21.0859 21.5547C20.9453 21.5547 20.5625 21.2656 19.9375 20.6875C17.4688 18.4375 14.3906 17.3125 10.7031 17.3125C8.14062 17.3125 5.99219 17.9062 4.25781 19.0938C2.53906 20.2656 1.67969 21.7031 1.67969 23.4062C1.67969 25.125 2.38281 26.5781 3.78906 27.7656C5.21094 28.9375 6.92969 29.5234 8.94531 29.5234C11.9141 29.5234 14.9766 28.5 18.1328 26.4531C21.2891 24.3906 24.2266 21.4922 26.9453 17.7578C26.4609 17.4141 26.2188 16.9766 26.2188 16.4453C26.2188 15.5859 27.0781 15.1562 28.7969 15.1562C30.6719 12.5312 31.9688 10.6797 32.6875 9.60156C28.1562 12.8984 24.0156 14.5469 20.2656 14.5469C18.0781 14.5469 16.1719 13.9062 14.5469 12.625C12.9219 11.3281 12.1094 9.85156 12.1094 8.19531C12.1094 5.92969 13.4297 4.05469 16.0703 2.57031C18.5547 1.16406 21.5078 0.460938 24.9297 0.460938C29.7266 0.460938 33.8359 1.69531 37.2578 4.16406L38.5938 2.73438C39.125 2.125 39.4922 1.82031 39.6953 1.82031C40.0234 1.82031 40.1875 1.94531 40.1875 2.19531C40.1875 2.39844 39.9453 2.71875 39.4609 3.15625C39.1328 3.46875 38.6406 3.98437 37.9844 4.70312C39.4531 6.03125 40.1875 6.85938 40.1875 7.1875C40.1875 7.48438 40.0391 7.63281 39.7422 7.63281C39.5391 7.63281 39.2188 7.375 38.7812 6.85938C38.5625 6.59375 38.0703 6.125 37.3047 5.45312C35.6953 7.4375 34.5078 9.03125 33.7422 10.2344C33.1797 11.1406 32.1719 12.9766 30.7188 15.7422C31.4219 16.1641 31.9844 16.6406 32.4062 17.1719C34.3594 16.4219 36.4844 14.6797 38.7812 11.9453C42.0469 8.07031 44.9531 5.28906 47.5 3.60156C50.3438 1.74219 53.3438 0.8125 56.5 0.8125C57.4062 0.8125 58.5078 0.953125 59.8047 1.23438C61.3516 1.57813 62.125 1.96094 62.125 2.38281ZM36.5781 4.89062C33.25 2.54688 29.3828 1.375 24.9766 1.375C21.7578 1.375 18.9922 2.00781 16.6797 3.27344C14.2422 4.58594 13.0234 6.22656 13.0234 8.19531C13.0234 9.61719 13.7266 10.8672 15.1328 11.9453C16.5391 13.0078 18.1875 13.5391 20.0781 13.5391C22.75 13.5391 25.5625 12.7422 28.5156 11.1484C31.3594 9.63281 34.0469 7.54687 36.5781 4.89062ZM31.4453 17.4531C31.1797 17.0625 30.8125 16.75 30.3438 16.5156L29.6641 17.7109C30.1484 17.7109 30.7422 17.625 31.4453 17.4531ZM28.2344 15.9297C27.5 15.9766 27.1328 16.1875 27.1328 16.5625C27.1328 16.7031 27.2422 16.8594 27.4609 17.0312L28.2344 15.9297ZM47.5938 24.8125C47.5938 25 47.4062 25.2578 47.0312 25.5859C45.8594 26.6641 44.6875 27.75 43.5156 28.8438C41.6562 30.4375 40.2656 31.2344 39.3438 31.2344C38.5625 31.2344 38.0391 30.7422 37.7734 29.7578C36.6953 30.7422 35.7812 31.2344 35.0312 31.2344C33.875 31.2344 33.2969 30.6641 33.2969 29.5234C33.2969 28.1328 33.9219 26.7188 35.1719 25.2812C36.5938 23.6562 38 22.8438 39.3906 22.8438C39.9844 22.8438 40.625 23.2266 41.3125 23.9922L42.0391 23.0781H44.9688L39.8359 29.8516C39.6328 30.1016 39.5312 30.2422 39.5312 30.2734C39.5312 30.3672 39.6172 30.4141 39.7891 30.4141C40.6484 30.4141 42.6484 28.8516 45.7891 25.7266C46.5547 24.9609 47.0469 24.5781 47.2656 24.5781C47.4844 24.5781 47.5938 24.6562 47.5938 24.8125ZM40.7969 24.7188C40.4375 24.1094 40.0781 23.8047 39.7188 23.8047C39.5938 23.8047 39.2422 24.1094 38.6641 24.7188C36.2422 27.2812 35.0312 29.0391 35.0312 29.9922C35.0312 30.2109 35.125 30.3203 35.3125 30.3203C35.875 30.3203 36.7891 29.5547 38.0547 28.0234L40.7969 24.7188ZM60.1094 24.8594C60.1094 24.9844 59.9688 25.1719 59.6875 25.4219C55.3281 29.2969 52.5391 31.2344 51.3203 31.2344C50.8203 31.2344 50.3828 31.0781 50.0078 30.7656C49.6484 30.4375 49.4688 30.0391 49.4688 29.5703C49.4688 28.8203 49.9609 27.8125 50.9453 26.5469C51.2734 26.125 51.9141 25.2578 52.8672 23.9453C52.0391 24.1172 50.8359 24.8359 49.2578 26.1016C48.0234 27.0859 46.9531 28.0625 46.0469 29.0312L36.6484 42.0859H33.3672L54.2969 15.1094H55.8438L48.6016 25.3281C50.8672 23.6719 52.625 22.8438 53.875 22.8438C54.8906 22.8438 55.3984 23.1953 55.3984 23.8984C55.3984 24.2109 55.2578 24.5625 54.9766 24.9531L51.8594 29.125C51.6719 29.3906 51.5781 29.6016 51.5781 29.7578C51.5781 29.9141 51.6719 29.9922 51.8594 29.9922C52.5938 29.9922 54.9766 28.3438 59.0078 25.0469C59.3984 24.7344 59.6562 24.5781 59.7812 24.5781C60 24.5781 60.1094 24.6719 60.1094 24.8594ZM70.7031 24.8125C70.7031 25 70.5156 25.2578 70.1406 25.5859C68.9688 26.6641 67.7969 27.75 66.625 28.8438C64.7656 30.4375 63.375 31.2344 62.4531 31.2344C61.6719 31.2344 61.1484 30.7422 60.8828 29.7578C59.8047 30.7422 58.8906 31.2344 58.1406 31.2344C56.9844 31.2344 56.4062 30.6641 56.4062 29.5234C56.4062 28.1328 57.0312 26.7188 58.2812 25.2812C59.7031 23.6562 61.1094 22.8438 62.5 22.8438C63.0938 22.8438 63.7344 23.2266 64.4219 23.9922L65.1484 23.0781H68.0781L62.9453 29.8516C62.7422 30.1016 62.6406 30.2422 62.6406 30.2734C62.6406 30.3672 62.7266 30.4141 62.8984 30.4141C63.7578 30.4141 65.7578 28.8516 68.8984 25.7266C69.6641 24.9609 70.1562 24.5781 70.375 24.5781C70.5938 24.5781 70.7031 24.6562 70.7031 24.8125ZM63.9062 24.7188C63.5469 24.1094 63.1875 23.8047 62.8281 23.8047C62.7031 23.8047 62.3516 24.1094 61.7734 24.7188C59.3516 27.2812 58.1406 29.0391 58.1406 29.9922C58.1406 30.2109 58.2344 30.3203 58.4219 30.3203C58.9844 30.3203 59.8984 29.5547 61.1641 28.0234L63.9062 24.7188ZM71.0078 27.3906L69.0391 30.7188H66.2969L68.6172 26.8984L71.2656 23.0781L74.1719 23.0078L72.0625 25.9609L74.9688 25.9141C75.625 24.9766 76.3281 24.0312 77.0781 23.0781H80.1016L75.3906 29.125C75.0781 29.5312 74.9219 29.7734 74.9219 29.8516C74.9375 29.9141 74.9844 29.9453 75.0625 29.9453C75.2812 29.9453 76.0469 29.5078 77.3594 28.6328C78.9219 27.6016 80.4922 26.4062 82.0703 25.0469C82.4453 24.7344 82.7031 24.5781 82.8438 24.5781C83.0625 24.5781 83.1719 24.6719 83.1719 24.8594C83.1719 24.9844 83.0312 25.1719 82.75 25.4219C78.5156 29.2969 75.5859 31.2344 73.9609 31.2344C72.7109 31.1562 72.5547 30.125 73.4922 28.1406C73.7578 27.7031 74.0391 27.2656 74.3359 26.8281L71.3828 26.875L71.0078 27.3906ZM93.6719 24.9062C93.6719 25.0469 93.3203 25.4453 92.6172 26.1016C89.7422 28.7891 87.4219 30.6484 85.6562 31.6797L77.9922 41.9922C75.4141 45.4453 73.3281 47.1719 71.7344 47.1719C70.8438 47.1719 70.3984 46.6953 70.3984 45.7422C70.3984 44.2266 71.7109 42.0312 74.3359 39.1562C76.8828 36.3594 79.9219 33.7188 83.4531 31.2344L84.1328 30.2266C83.1797 30.8984 82.2969 31.2344 81.4844 31.2344C80.3281 31.2344 79.75 30.5625 79.75 29.2188C79.75 27.7969 80.4844 26.3828 81.9531 24.9766C83.4375 23.5547 84.9609 22.8438 86.5234 22.8438C87.2109 22.8438 87.8047 23.2422 88.3047 24.0391L88.9844 23.0781H91.8438L87.1562 29.5703C88.625 28.4766 90.4141 27.0156 92.5234 25.1875C92.9297 24.8438 93.2188 24.6719 93.3906 24.6719C93.5781 24.6719 93.6719 24.75 93.6719 24.9062ZM87.7188 24.9062C87.3594 24.1719 86.9766 23.8047 86.5703 23.8047C86.2109 23.8047 85.0938 25.0547 83.2188 27.5547C82.2188 28.8672 81.7188 29.6641 81.7188 29.9453C81.7188 30.1328 81.8203 30.2266 82.0234 30.2266C82.4453 30.2266 83.1016 29.9219 83.9922 29.3125C84.9766 28.6562 85.7266 27.9375 86.2422 27.1562L87.7188 24.9062ZM81.7656 33.7422C78.9844 35.8047 76.5625 37.9922 74.5 40.3047C72.375 42.6953 71.3125 44.4766 71.3125 45.6484C71.3125 46.0234 71.4688 46.2109 71.7812 46.2109C72.2188 46.2109 72.9141 45.7344 73.8672 44.7812C74.8203 43.8438 75.7109 42.7578 76.5391 41.5234L81.7656 33.7422ZM106.281 24.8594C106.281 24.9844 106.141 25.1719 105.859 25.4219C101.625 29.2969 98.6953 31.2344 97.0703 31.2344C96.1328 31.2344 95.6328 30.6406 95.5703 29.4531C94.2891 30.6406 93.2031 31.2344 92.3125 31.2344C91 31.2344 90.3438 30.625 90.3438 29.4062C90.3438 28.7031 90.7422 27.8281 91.5391 26.7812L94.375 23.0781H97.7031L93.0859 29.3125C92.8672 29.625 92.7578 29.8359 92.7578 29.9453C92.7578 30.1328 92.8672 30.2266 93.0859 30.2266C93.5078 30.2266 94.5078 29.4141 96.0859 27.7891C97.4766 26.3516 98.8438 24.7812 100.188 23.0781H103.211L98.5 29.125C98.1875 29.5312 98.0312 29.7734 98.0312 29.8516C98.0469 29.9141 98.0938 29.9453 98.1719 29.9453C98.3906 29.9453 99.1562 29.5078 100.469 28.6328C102.031 27.6016 103.602 26.4062 105.18 25.0469C105.555 24.7344 105.812 24.5781 105.953 24.5781C106.172 24.5781 106.281 24.6719 106.281 24.8594ZM114.438 25.4688C114.438 25.875 113.445 26.7422 111.461 28.0703C108.289 30.1797 105.969 31.2344 104.5 31.2344C104 31.2344 103.555 31.0547 103.164 30.6953C102.773 30.3203 102.578 29.8594 102.578 29.3125C102.578 27.9688 103.391 26.5547 105.016 25.0703C106.641 23.5859 108.164 22.8438 109.586 22.8438C110.773 22.8438 111.367 23.2734 111.367 24.1328C111.367 25.0234 110.594 25.9766 109.047 26.9922C107.594 27.9453 106.305 28.4531 105.18 28.5156C104.758 29.0781 104.547 29.5234 104.547 29.8516C104.547 30.1016 104.672 30.2266 104.922 30.2266C105.609 30.2266 106.797 29.7812 108.484 28.8906C110.016 28.0781 111.375 27.2266 112.562 26.3359C113.625 25.5391 114.203 25.1406 114.297 25.1406C114.391 25.1406 114.438 25.25 114.438 25.4688ZM110.453 24.1797C110.453 23.7422 110.18 23.5234 109.633 23.5234C109.102 23.5234 108.414 24.0781 107.57 25.1875L105.695 27.6953C106.602 27.5703 107.617 27.1016 108.742 26.2891C109.883 25.4609 110.453 24.7578 110.453 24.1797ZM136.352 4.9375C136.352 6.0625 135.047 7.97656 132.438 10.6797C129.828 13.3828 125.406 17.3906 119.172 22.7031C115.703 27.3438 113.969 29.7422 113.969 29.8984C113.969 30.1484 114.055 30.2734 114.227 30.2734C114.711 30.2734 115.438 29.9062 116.406 29.1719C117.281 28.5156 118.008 27.8281 118.586 27.1094C118.555 26.9219 118.539 26.6797 118.539 26.3828C118.539 25.7578 118.867 25.1016 119.523 24.4141C120.102 23.8203 120.539 23.5234 120.836 23.5234C121.383 23.5234 121.656 23.7422 121.656 24.1797C121.656 24.6641 121.148 25.5312 120.133 26.7812C120.617 26.6875 121.445 26.3438 122.617 25.75C123.742 25.1562 124.289 24.8594 124.258 24.8594C124.445 24.8594 124.539 24.9688 124.539 25.1875C124.539 25.6875 123.906 26.2266 122.641 26.8047C121.469 27.3516 120.375 27.6797 119.359 27.7891C117.203 30.0859 115.375 31.2344 113.875 31.2344C112.672 31.2344 112.07 30.5938 112.07 29.3125C112.07 28.2656 112.547 27.0312 113.5 25.6094C114.531 24.0938 116.727 21.4141 120.086 17.5703C122.461 14.8203 124.836 12.0703 127.211 9.32031C130.898 5.33594 133.43 3.34375 134.805 3.34375C135.836 3.34375 136.352 3.875 136.352 4.9375ZM135.438 5.07812C135.438 4.625 135.195 4.39844 134.711 4.39844C133.914 4.39844 132.859 5.09375 131.547 6.48438C130.453 7.64062 128.758 9.76562 126.461 12.8594L121.797 19.0938C130.891 11.75 135.438 7.07812 135.438 5.07812ZM135.625 24.8125C135.625 25 135.438 25.2578 135.062 25.5859C133.891 26.6641 132.719 27.75 131.547 28.8438C129.688 30.4375 128.297 31.2344 127.375 31.2344C126.594 31.2344 126.07 30.7422 125.805 29.7578C124.727 30.7422 123.812 31.2344 123.062 31.2344C121.906 31.2344 121.328 30.6641 121.328 29.5234C121.328 28.1328 121.953 26.7188 123.203 25.2812C124.625 23.6562 126.031 22.8438 127.422 22.8438C128.016 22.8438 128.656 23.2266 129.344 23.9922L130.07 23.0781H133L127.867 29.8516C127.664 30.1016 127.562 30.2422 127.562 30.2734C127.562 30.3672 127.648 30.4141 127.82 30.4141C128.68 30.4141 130.68 28.8516 133.82 25.7266C134.586 24.9609 135.078 24.5781 135.297 24.5781C135.516 24.5781 135.625 24.6562 135.625 24.8125ZM128.828 24.7188C128.469 24.1094 128.109 23.8047 127.75 23.8047C127.625 23.8047 127.273 24.1094 126.695 24.7188C124.273 27.2812 123.062 29.0391 123.062 29.9922C123.062 30.2109 123.156 30.3203 123.344 30.3203C123.906 30.3203 124.82 29.5547 126.086 28.0234L128.828 24.7188ZM173.688 3.92969C173.688 6.27344 171.203 8.86719 166.234 11.7109C163.219 13.4297 159.992 14.8594 156.555 16C152.727 17.2656 149.25 17.9453 146.125 18.0391C144.625 20.3359 143.875 22.4766 143.875 24.4609C143.875 26.8672 144.438 28.5 145.562 29.3594C147.266 25.5781 149.336 22.5 151.773 20.125C154.164 17.7812 156.414 16.6094 158.523 16.6094C159.367 16.6094 160.086 16.9375 160.68 17.5938C161.289 18.2344 161.594 19.0234 161.594 19.9609C161.594 22.8047 160.195 25.4297 157.398 27.8359C154.727 30.1641 151.945 31.3281 149.055 31.3281C148.133 31.3281 147.141 31.1562 146.078 30.8125C145.125 33.6406 144.648 35.9453 144.648 37.7266C144.648 38.3672 144.484 38.6875 144.156 38.6875C143.875 38.6875 143.734 38.3672 143.734 37.7266C143.734 35.3672 144.195 32.9297 145.117 30.4141C142.336 28.9766 140.945 26.5938 140.945 23.2656C140.945 21.5 141.461 19.7109 142.492 17.8984C139.664 17.5703 137.258 16.6562 135.273 15.1562C133.195 13.5938 132.156 11.7891 132.156 9.74219C132.156 7.33594 133.586 5.3125 136.445 3.67188C139.18 2.10937 142.438 1.32812 146.219 1.32812C151 1.32812 155.367 2.28906 159.32 4.21094C163.648 2.28906 167.062 1.32812 169.562 1.32812C172.312 1.32812 173.688 2.19531 173.688 3.92969ZM172.773 3.83594C172.773 2.80469 172.055 2.28906 170.617 2.28906C168.289 2.28906 165.195 3.3125 161.336 5.35938C162.852 6.40625 163.781 7.1875 164.125 7.70312C164.188 7.79688 164.219 7.86719 164.219 7.91406C164.219 8.10156 164.125 8.19531 163.938 8.19531C163.812 8.19531 163.672 8.13281 163.516 8.00781C162.219 6.99219 161.211 6.27344 160.492 5.85156C154.555 9.13281 149.992 12.8594 146.805 17.0312C152.711 16.75 158.938 14.7812 165.484 11.125C170.344 8.40625 172.773 5.97656 172.773 3.83594ZM158.219 4.75C154.312 3.14062 150.328 2.33594 146.266 2.33594C142.656 2.33594 139.555 3.04687 136.961 4.46875C134.367 5.875 133.07 7.61719 133.07 9.69531C133.07 11.5859 134.047 13.2344 136 14.6406C137.891 16.0156 140.227 16.8125 143.008 17.0312C146.18 12.25 151.25 8.15625 158.219 4.75ZM160.68 19.9141C160.68 19.2734 160.469 18.7031 160.047 18.2031C159.625 17.7031 159.094 17.4531 158.453 17.4531C156.578 17.4531 154.492 18.6016 152.195 20.8984C149.82 23.3047 147.891 26.3047 146.406 29.8984C147.297 30.2734 148.211 30.4609 149.148 30.4609C151.758 30.4609 154.32 29.3438 156.836 27.1094C159.398 24.8125 160.68 22.4141 160.68 19.9141ZM162.648 27.3906L160.68 30.7188H157.938L160.258 26.8984L162.906 23.0781L165.812 23.0078L163.703 25.9609L166.609 25.9141C167.266 24.9766 167.969 24.0312 168.719 23.0781H171.742L167.031 29.125C166.719 29.5312 166.562 29.7734 166.562 29.8516C166.578 29.9141 166.625 29.9453 166.703 29.9453C166.922 29.9453 167.688 29.5078 169 28.6328C170.562 27.6016 172.133 26.4062 173.711 25.0469C174.086 24.7344 174.344 24.5781 174.484 24.5781C174.703 24.5781 174.812 24.6719 174.812 24.8594C174.812 24.9844 174.672 25.1719 174.391 25.4219C170.156 29.2969 167.227 31.2344 165.602 31.2344C164.352 31.1562 164.195 30.125 165.133 28.1406C165.398 27.7031 165.68 27.2656 165.977 26.8281L163.023 26.875L162.648 27.3906ZM182.969 25.4688C182.969 25.875 181.977 26.7422 179.992 28.0703C176.82 30.1797 174.5 31.2344 173.031 31.2344C172.531 31.2344 172.086 31.0547 171.695 30.6953C171.305 30.3203 171.109 29.8594 171.109 29.3125C171.109 27.9688 171.922 26.5547 173.547 25.0703C175.172 23.5859 176.695 22.8438 178.117 22.8438C179.305 22.8438 179.898 23.2734 179.898 24.1328C179.898 25.0234 179.125 25.9766 177.578 26.9922C176.125 27.9453 174.836 28.4531 173.711 28.5156C173.289 29.0781 173.078 29.5234 173.078 29.8516C173.078 30.1016 173.203 30.2266 173.453 30.2266C174.141 30.2266 175.328 29.7812 177.016 28.8906C178.547 28.0781 179.906 27.2266 181.094 26.3359C182.156 25.5391 182.734 25.1406 182.828 25.1406C182.922 25.1406 182.969 25.25 182.969 25.4688ZM178.984 24.1797C178.984 23.7422 178.711 23.5234 178.164 23.5234C177.633 23.5234 176.945 24.0781 176.102 25.1875L174.227 27.6953C175.133 27.5703 176.148 27.1016 177.273 26.2891C178.414 25.4609 178.984 24.7578 178.984 24.1797ZM191.219 30.2734L187.984 30.4609L191.219 26.4062L192.578 24.7656C191.953 25.1719 190.914 25.8594 189.461 26.8281H189.438C189.062 27.5 188.5 28.1797 187.75 28.8672C186.25 30.2578 184.766 30.9531 183.297 30.9531C182.203 30.9531 181.656 30.4922 181.656 29.5703C181.656 28.9453 181.867 28.4062 182.289 27.9531C182.711 27.4844 183.188 27.25 183.719 27.25C184.438 27.25 184.797 27.8281 184.797 28.9844C186.406 28.1562 187.555 27.0547 188.242 25.6797C188.93 24.2891 188.656 23.5547 187.422 23.4766C186.188 23.3828 184.766 24.0547 183.156 25.4922L182.57 25.2578C184.289 23.3203 186.109 22.4219 188.031 22.5625C189.359 22.5625 190.023 23.3125 190.023 24.8125C190.023 25.0469 190 25.2812 189.953 25.5156C191.016 24.875 192.312 24.0781 193.844 23.125L193.82 23.2891L194.031 23.0312H197.008L192.742 28.375C193.602 27.8438 194.578 27.2422 195.672 26.5703C196.031 26.0234 196.508 25.4766 197.102 24.9297C198.617 23.5391 200.109 22.8438 201.578 22.8438C202.672 22.8438 203.219 23.3047 203.219 24.2266C203.219 24.8516 203.008 25.3984 202.586 25.8672C202.164 26.3203 201.688 26.5469 201.156 26.5469C200.438 26.5469 200.078 25.9688 200.078 24.8125C197.812 27.2031 196.68 28.9141 196.68 29.9453C196.68 30.1953 196.844 30.3203 197.172 30.3203C198.609 30.3203 200.664 29.4609 203.336 27.7422C205.945 26.0547 207.18 25.1875 207.039 25.1406C207.273 25.1406 207.391 25.25 207.391 25.4688C207.391 25.7656 206.68 26.4219 205.258 27.4375C204.102 28.25 203.102 28.8906 202.258 29.3594C200.008 30.6094 198.273 31.2344 197.055 31.2344C195.586 31.2344 194.852 30.4844 194.852 28.9844C194.852 28.5938 194.922 28.1875 195.062 27.7656C194.969 27.8281 194.883 27.8906 194.805 27.9531C194.242 28.2969 193.078 29.0625 191.312 30.25H191.289V30.1797L191.219 30.2734ZM218.547 24.8125C218.547 25 218.359 25.2578 217.984 25.5859C216.812 26.6641 215.641 27.75 214.469 28.8438C212.609 30.4375 211.219 31.2344 210.297 31.2344C209.516 31.2344 208.992 30.7422 208.727 29.7578C207.648 30.7422 206.734 31.2344 205.984 31.2344C204.828 31.2344 204.25 30.6641 204.25 29.5234C204.25 28.1328 204.875 26.7188 206.125 25.2812C207.547 23.6562 208.953 22.8438 210.344 22.8438C210.938 22.8438 211.578 23.2266 212.266 23.9922L212.992 23.0781H215.922L210.789 29.8516C210.586 30.1016 210.484 30.2422 210.484 30.2734C210.484 30.3672 210.57 30.4141 210.742 30.4141C211.602 30.4141 213.602 28.8516 216.742 25.7266C217.508 24.9609 218 24.5781 218.219 24.5781C218.438 24.5781 218.547 24.6562 218.547 24.8125ZM211.75 24.7188C211.391 24.1094 211.031 23.8047 210.672 23.8047C210.547 23.8047 210.195 24.1094 209.617 24.7188C207.195 27.2812 205.984 29.0391 205.984 29.9922C205.984 30.2109 206.078 30.3203 206.266 30.3203C206.828 30.3203 207.742 29.5547 209.008 28.0234L211.75 24.7188ZM218.852 27.3906L216.883 30.7188H214.141L216.461 26.8984L219.109 23.0781L222.016 23.0078L219.906 25.9609L222.812 25.9141C223.469 24.9766 224.172 24.0312 224.922 23.0781H227.945L223.234 29.125C222.922 29.5312 222.766 29.7734 222.766 29.8516C222.781 29.9141 222.828 29.9453 222.906 29.9453C223.125 29.9453 223.891 29.5078 225.203 28.6328C226.766 27.6016 228.336 26.4062 229.914 25.0469C230.289 24.7344 230.547 24.5781 230.688 24.5781C230.906 24.5781 231.016 24.6719 231.016 24.8594C231.016 24.9844 230.875 25.1719 230.594 25.4219C226.359 29.2969 223.43 31.2344 221.805 31.2344C220.555 31.1562 220.398 30.125 221.336 28.1406C221.602 27.7031 221.883 27.2656 222.18 26.8281L219.227 26.875L218.852 27.3906ZM241.656 24.8125C241.656 25 241.469 25.2578 241.094 25.5859C239.922 26.6641 238.75 27.75 237.578 28.8438C235.719 30.4375 234.328 31.2344 233.406 31.2344C232.625 31.2344 232.102 30.7422 231.836 29.7578C230.758 30.7422 229.844 31.2344 229.094 31.2344C227.938 31.2344 227.359 30.6641 227.359 29.5234C227.359 28.1328 227.984 26.7188 229.234 25.2812C230.656 23.6562 232.062 22.8438 233.453 22.8438C234.047 22.8438 234.688 23.2266 235.375 23.9922L236.102 23.0781H239.031L233.898 29.8516C233.695 30.1016 233.594 30.2422 233.594 30.2734C233.594 30.3672 233.68 30.4141 233.852 30.4141C234.711 30.4141 236.711 28.8516 239.852 25.7266C240.617 24.9609 241.109 24.5781 241.328 24.5781C241.547 24.5781 241.656 24.6562 241.656 24.8125ZM234.859 24.7188C234.5 24.1094 234.141 23.8047 233.781 23.8047C233.656 23.8047 233.305 24.1094 232.727 24.7188C230.305 27.2812 229.094 29.0391 229.094 29.9922C229.094 30.2109 229.188 30.3203 229.375 30.3203C229.938 30.3203 230.852 29.5547 232.117 28.0234L234.859 24.7188Z" fill="#333333"/>
</svg>
